<svg xmlns="http://www.w3.org/2000/svg" width="732" height="353" style="fill:none;stroke:none;fill-rule:evenodd;clip-rule:evenodd;stroke-linecap:round;stroke-linejoin:round;stroke-miterlimit:1.5"><style id="fontImports">@import url(https://fonts.googleapis.com/css2?family=Roboto:wght@400;700&amp;display=block);</style><g id="items" style="isolation:isolate"><g id="blend" style="mix-blend-mode:normal"><g id="g-root-0.cu_sy_40glvwrzvgr-fill" data-item-order="999897394" transform="translate(231 42.166)"><path id="0.cu_sy_40glvwrzvgr-fill" fill="#f0f0f0" stroke="none" d="M25.755 70.52H69.52V26.333C87.278 15.95 107.944 10 130 10c21.233 0 41.177 5.514 58.48 15.19v45.33h45.765C244.27 88.052 250 108.357 250 130c0 21.643-5.73 41.948-15.755 59.48h-45.764v45.33C171.178 244.485 151.233 250 130 250c-22.056 0-42.722-5.95-60.48-16.333V189.48H25.755C15.73 171.948 10 151.643 10 130c0-21.643 5.73-41.948 15.755-59.48Z"/></g><g id="g-root-4.cu_sy_1upb0gjwrzw1w-fill" data-item-order="999897398" transform="translate(194.52 6.687)"><path id="4.cu_sy_1upb0gjwrzw1w-fill" fill="#fffce6" stroke="none" d="M58 106c-12.284 0-24.568-4.686-33.941-14.059-18.745-18.745-18.745-49.137 0-67.882 18.745-18.745 49.137-18.745 67.882 0C101.314 33.43 106 45.716 106 58v48H58.002Z"/></g><g id="g-root-3.cu_sy_1lto07nwrzwul-fill" data-item-order="999897402" transform="translate(194.52 221.646)"><path id="3.cu_sy_1lto07nwrzwul-fill" fill="#f5fbe9" stroke="none" d="M106 58c0 12.285-4.686 24.57-14.059 33.942-18.745 18.745-49.137 18.745-67.882 0-18.745-18.745-18.745-49.137 0-67.882C33.43 14.687 45.716 10 58 10h48v48Z"/></g><g id="g-root-2.cu_sy_1hegz6bwrzuh2-fill" data-item-order="999897406" transform="translate(409.48 221.647)"><path id="2.cu_sy_1hegz6bwrzuh2-fill" fill="#e6f9ff" stroke="none" d="M10 58c0 12.284 4.686 24.569 14.059 33.941 18.745 18.746 49.137 18.746 67.882 0 18.746-18.744 18.745-49.137 0-67.882C82.57 14.687 70.284 10 58 10H10v48Z"/></g><g id="g-root-1.cu_sy_18ityxfwrzv9r-fill" data-item-order="999897410" transform="translate(409.48 6.687)"><path id="1.cu_sy_18ityxfwrzv9r-fill" fill="#e9fbf3" stroke="none" d="M58 106c12.284 0 24.569-4.686 33.942-14.059 18.745-18.745 18.745-49.137 0-67.882-18.745-18.745-49.138-18.745-67.883 0C14.687 33.432 10 45.716 10 58v48h47.999Z"/></g><g id="g-root-tx_userinte_v9924zws2q6b-fill" data-item-order="1000000000" transform="translate(26 6.167)"><text id="tx_userinte_v9924zws2q6b-fill" fill="#e3cd09" stroke="none" font-family="Roboto, sans-serif" font-size="20" font-weight="bold" style="font:700 20px Roboto,sans-serif;white-space:pre"><tspan x="13.95" y="34" dominant-baseline="ideographic">User Interfaces</tspan></text></g><g id="g-root-tx_clicomma_hyf0urws2olh-fill" data-item-order="1000000000" transform="translate(530 6.167)"><text id="tx_clicomma_hyf0urws2olh-fill" fill="#3bc482" stroke="none" font-family="Roboto, sans-serif" font-size="20" font-weight="bold" style="font:700 20px Roboto,sans-serif;white-space:pre"><tspan x="12" y="34" dominant-baseline="ideographic">CLI Commands</tspan></text></g><g id="g-root-tx_observin_4lpkb7ws2o06-fill" data-item-order="1000000000" transform="translate(14 42.167)"><text id="tx_observin_4lpkb7ws2o06-fill" fill="#484848" stroke="none" font-family="Roboto, sans-serif" font-size="15" style="font:15px Roboto,sans-serif;white-space:pre"><tspan x="22.64" y="31" dominant-baseline="ideographic">Observe your custom </tspan><tspan x="22.53" y="49" dominant-baseline="ideographic">workflows, or explore </tspan><tspan x="68.98" y="67" dominant-baseline="ideographic">autonomously</tspan></text></g><g id="g-root-tx_commands_18kpkibws2old-fill" data-item-order="1000000000" transform="translate(530 42.167)"><text id="tx_commands_18kpkibws2old-fill" fill="#484848" stroke="none" font-family="Roboto, sans-serif" font-size="15" style="font:15px Roboto,sans-serif;white-space:pre"><tspan x="12" y="31" dominant-baseline="ideographic">Access CLIs for </tspan><tspan x="12" y="49" dominant-baseline="ideographic">advanced technical </tspan><tspan x="12" y="67" dominant-baseline="ideographic">workflows</tspan></text></g><g id="g-root-tx_apispeci_me8iz7ws2nt8-fill" data-item-order="1000000000" transform="translate(38 198.167)"><text id="tx_apispeci_me8iz7ws2nt8-fill" fill="#93c131" stroke="none" font-family="Roboto, sans-serif" font-size="20" font-weight="bold" style="font:700 20px Roboto,sans-serif;white-space:pre"><tspan x="107.81" y="34" dominant-baseline="ideographic">API </tspan><tspan x="11.72" y="58" dominant-baseline="ideographic">Specifications</tspan></text></g><g id="g-root-tx_guiappli_zp2k9fws2pe2-fill" data-item-order="1000000000" transform="translate(530 222.167)"><text id="tx_guiappli_zp2k9fws2pe2-fill" fill="#17b0e3" stroke="none" font-family="Roboto, sans-serif" font-size="20" font-weight="bold" style="font:700 20px Roboto,sans-serif;white-space:pre"><tspan x="12" y="34" dominant-baseline="ideographic">GUI Applications</tspan></text></g><g id="g-root-tx_jsonbase_1qbd3wzws2pdz-fill" data-item-order="1000000000" transform="translate(2 258.167)"><text id="tx_jsonbase_1qbd3wzws2pdz-fill" fill="#484848" stroke="none" font-family="Roboto, sans-serif" font-size="15" style="font:15px Roboto,sans-serif;white-space:pre"><tspan x="20.75" y="28" dominant-baseline="ideographic">Take snapshots of your </tspan><tspan x="24.39" y="46" dominant-baseline="ideographic">API specifications, and </tspan><tspan x="34.11" y="64" dominant-baseline="ideographic">identify changes over </tspan><tspan x="146.36" y="82" dominant-baseline="ideographic">time</tspan></text></g><g id="g-root-tx_graphica_1lvjlsjws2q68-fill" data-item-order="1000000000" transform="translate(530 258.167)"><text id="tx_graphica_1lvjlsjws2q68-fill" fill="#484848" stroke="none" font-family="Roboto, sans-serif" font-size="15" style="font:15px Roboto,sans-serif;white-space:pre"><tspan x="12" y="31" dominant-baseline="ideographic">Take screenshots, video </tspan><tspan x="12" y="49" dominant-baseline="ideographic">recordings, and notes on </tspan><tspan x="12" y="67" dominant-baseline="ideographic">important steps</tspan></text></g><g id="g-root-0.cu_sy_40glvwrzvgr-stroke" data-item-order="999897394" transform="translate(231 42.166)"><path id="0.cu_sy_40glvwrzvgr-stroke" fill="none" stroke="#888" stroke-linecap="round" stroke-linejoin="round" stroke-miterlimit="4" stroke-width="2" d="M25.755 70.52C15.73 88.052 10 108.357 10 130c0 21.643 5.73 41.948 15.755 59.48M69.52 26.334C87.278 15.95 107.944 10 130 10c21.233 0 41.177 5.514 58.48 15.19m45.765 45.33C244.27 88.052 250 108.357 250 130c0 21.643-5.73 41.948-15.755 59.48m-45.764 45.33C171.178 244.485 151.233 250 130 250c-22.056 0-42.722-5.95-60.48-16.333"/></g><g id="g-root-4.cu_sy_1upb0gjwrzw1w-stroke" data-item-order="999897398" transform="translate(194.52 6.687)"><path id="4.cu_sy_1upb0gjwrzw1w-stroke" fill="none" stroke="#e3cd09" stroke-linecap="round" stroke-linejoin="round" stroke-miterlimit="4" stroke-width="2" d="M58 106c-12.284 0-24.568-4.686-33.941-14.059-18.745-18.745-18.745-49.137 0-67.882 18.745-18.745 49.137-18.745 67.882 0C101.314 33.43 106 45.716 106 58v48H58.001Z"/></g><g id="g-root-3.cu_sy_1lto07nwrzwul-stroke" data-item-order="999897402" transform="translate(194.52 221.646)"><path id="3.cu_sy_1lto07nwrzwul-stroke" fill="none" stroke="#93c131" stroke-linecap="round" stroke-linejoin="round" stroke-miterlimit="4" stroke-width="2" d="M106 58c0 12.285-4.686 24.57-14.059 33.942-18.745 18.745-49.137 18.745-67.882 0-18.745-18.745-18.745-49.137 0-67.882C33.43 14.687 45.716 10 58 10h48v48Z"/></g><g id="g-root-2.cu_sy_1hegz6bwrzuh2-stroke" data-item-order="999897406" transform="translate(409.48 221.647)"><path id="2.cu_sy_1hegz6bwrzuh2-stroke" fill="none" stroke="#17b0e3" stroke-linecap="round" stroke-linejoin="round" stroke-miterlimit="4" stroke-width="2" d="M10 58c0 12.284 4.686 24.569 14.059 33.941 18.745 18.746 49.137 18.746 67.882 0 18.745-18.745 18.745-49.137 0-67.882C82.57 14.687 70.284 10 58 10H10v48Z"/></g><g id="g-root-1.cu_sy_18ityxfwrzv9r-stroke" data-item-order="999897410" transform="translate(409.48 6.687)"><path id="1.cu_sy_18ityxfwrzv9r-stroke" fill="none" stroke="#3bc482" stroke-linecap="round" stroke-linejoin="round" stroke-miterlimit="4" stroke-width="2" d="M58 106c12.284 0 24.569-4.686 33.942-14.059 18.745-18.745 18.745-49.137 0-67.882-18.746-18.745-49.138-18.745-67.883 0C14.687 33.432 10 45.716 10 58v48h47.999Z"/></g><g id="g-root-lapt_18lbv9vwsgpoh-stroke" data-item-order="1000000000" transform="translate(218 30.167)"><path id="lapt_18lbv9vwsgpoh-stroke" fill="none" stroke="#e3cd09" stroke-linecap="round" stroke-linejoin="round" stroke-miterlimit="4" stroke-width="2" d="M39 49h16l1.97 6.758A1 1 0 0 1 56 57H38a1 1 0 0 1-.97-1.242Zm15-10H40a1 1 0 0 0-1 1v9h16v-9a1 1 0 0 0-1-1Zm-8 14h2M34 37H11c.02-1.857.403-3.691 1.13-5.4.8-1.6 4.126-2.7 8.306-4.248 1.13-.418.944-3.368.444-3.92a8.334 8.334 0 0 1-2.17-6.462A5.45 5.45 0 0 1 24 11a5.45 5.45 0 0 1 5.29 5.97 8.334 8.334 0 0 1-2.17 6.464c-.5.552-.686 3.502.444 3.92 4.18 1.548 7.508 2.654 8.306 4.248.366.763.635 1.57.8 2.4m-4.846-22.528A5.146 5.146 0 0 1 34 11a5.45 5.45 0 0 1 5.29 5.97 8.334 8.334 0 0 1-2.17 6.464c-.5.552-.686 3.502.444 3.92 4.18 1.548 7.508 2.654 8.306 4.248a10 10 0 0 1 .79 2.382"/></g><g id="g-root-1_1lw62vnwrx2by-stroke" data-item-order="1000000000" transform="translate(434 30.167)"><path id="1_1lw62vnwrx2by-stroke" fill="none" stroke="#3bc482" stroke-linecap="round" stroke-linejoin="round" stroke-miterlimit="4" stroke-width="2" d="M15.143 11.714h37.714s3.429 0 3.429 3.429v37.714s0 3.429-3.429 3.429H15.143s-3.429 0-3.429-3.429V15.143s0-3.429 3.429-3.429m-3.429 12h44.572M23.714 34l5.143 5.143-5.143 5.143m15.429-5.143H46"/></g><g id="g-root-shee_90wlcjws2qdp-stroke" data-item-order="1000000000" transform="translate(302 114.167)"><path id="shee_90wlcjws2qdp-stroke" fill="none" stroke="#888" stroke-linecap="round" stroke-linejoin="round" stroke-miterlimit="4" stroke-width="2" d="M94.828 28A4 4 0 0 1 96 30.828V100a4 4 0 0 1-4 4H24a4 4 0 0 1-4-4V16a4 4 0 0 1 4-4h53.172A4 4 0 0 1 80 13.164ZM84 84.996c0 1.656-1.792 3-4 3H36c-2.208 0-4-1.344-4-3v-42c0-1.66 1.792-3 4-3h44c2.208 0 4 1.34 4 3Zm-52-21h52m-52-12h52m-52 24h52m-36-36v48"/></g><g id="g-root-1_90cgjws2q6n-stroke" data-item-order="1000000000" transform="translate(218 246.167)"><path id="1_90cgjws2q6n-stroke" fill="none" stroke="#93c131" stroke-linecap="round" stroke-linejoin="round" stroke-miterlimit="4" stroke-width="2" d="M49 35V22.956C49.003 16.354 43.652 11 37.05 11H13a2 2 0 0 0-2 2v42a2 2 0 0 0 2 2h18m8-45.832V19a2 2 0 0 0 2 2h7.84M45 41v4a4 4 0 1 1-8 0v-4m4 8.008v8m8 0v-16l4 8 4-8v16"/></g><g id="g-root-smal_59hxvwschs8-stroke" data-item-order="1000000000" transform="translate(434 246.167)"><path id="smal_59hxvwschs8-stroke" fill="none" stroke="#17b0e3" stroke-linecap="round" stroke-linejoin="round" stroke-miterlimit="4" stroke-width="2" d="M24 23.008h20s4 0 4 4v12s0 4-4 4H24s-4 0-4-4v-12s0-4 4-4m-4 8h28m-22-4.5h0m0 0a.5.5 0 1 0 0 1 .5.5 0 0 0 0-1m4 0h0m0 0a.5.5 0 1 0 0 1 .5.5 0 0 0 0-1m4 0h0m0 0a.5.5 0 1 0 0 1 .5.5 0 0 0 0-1"/></g></g></g></svg>